<?xml version="1.0" encoding="utf-8"?>
<!-- Generator: Adobe Illustrator 25.4.1, SVG Export Plug-In . SVG Version: 6.00 Build 0)  -->
<svg version="1.1" id="Layer_1" xmlns="http://www.w3.org/2000/svg" xmlns:xlink="http://www.w3.org/1999/xlink" x="0px" y="0px"
	 viewBox="0 0 304.2 321" style="enable-background:new 0 0 304.2 321;" xml:space="preserve">
<style type="text/css">
	.st0{fill:#FFFFFF;stroke:#FFFFFF;stroke-width:0.8484;stroke-miterlimit:10;}
	.st1{fill:#FFFFFF;stroke:#FFFFFF;stroke-width:1.1499;stroke-miterlimit:10;}
</style>
<g>
	<g>
		<path class="st0" d="M211,179.4c-0.6,3.9-1.6,7.7-3.2,11.4h-28.5c1.5-2.9,2.4-6.2,2.3-9.5c0-0.6,0-1.2-0.1-1.7
			c1.4,0.1,2.8,0.2,4.6,0.3c1.5,0,3.2,0.1,5.1,0.1h9.7c2,0,3.7,0,5.4-0.1C208.1,179.6,209.7,179.5,211,179.4z"/>
		<path class="st0" d="M111.1,192.3"/>
		<path class="st0" d="M111.1,192.3"/>
		<path class="st0" d="M101.7,200.1"/>
		<path class="st0" d="M101.7,200.1"/>
		<path class="st0" d="M98.7,178.2c0,0-22.1-3.6-41.5,4.8c0,0,29.2,1.4,46.1,11.1c0,0,16.1,10.3,20.8,14.9
			C128.8,213.6,98.7,178.2,98.7,178.2z"/>
		<g>
			<path class="st0" d="M152.1,46.6c0-1.6-0.1-3.1-0.2-4.6c6.4,0.5,12.8,2,18.9,4.2c0,1.5-0.1,3.1-0.1,4.8v17.1
				c-1.3-0.9-2.6-1.8-4-2.5c-4.5-2.6-9.6-4.2-14.8-4.8V49C152.1,48.2,152.1,47.4,152.1,46.6z"/>
			<path class="st0" d="M200.9,179.8h-9.7c-1.9,0-3.6,0-5.1-0.1c0,0.5,0.1,1,0.1,1.5c0,3.2-0.6,6.4-1.9,9.5h18.5
				c1.7-3.5,2.9-7.2,3.6-11C204.7,179.8,202.9,179.8,200.9,179.8z M177.8,200.1c-5.7,5.3-13.3,8-23.1,8c-8.1,0.1-16.1-2-23.2-5.8
				c-7-3.8-12.3-8.7-15.8-14.5c-3.4-5.9-6.2-14.6-8.2-26.4h-4.3v31.4c4.2,4.6,8.7,8.7,13.7,12.1c3.7,2.8,7.9,5.2,12.1,7.1
				c4.6,2,9.4,3.4,14.3,4.2l0.7,0.1c4.3,0.8,8.7,1.1,13,1.1c14.7,0,26.6-4.5,36-13.5c2.7-2.6,5.2-5.5,7.2-8.7h-18.4
				C180.6,197,179.3,198.6,177.8,200.1L177.8,200.1z M202.6,153.2c-3-6-7.2-11.3-12.6-15.5c-4.7-3.6-9.6-6.9-14.7-9.8
				c-1.4-0.8-3-1.8-4.6-2.7c-3.4-2-7-4.1-11.1-6.3c-2.7-1.4-5.3-2.9-7.6-4.3c-1.6-0.9-3.1-1.8-4.6-2.7
				c-11.3-6.9-18.7-12.6-22.4-17.1c-3.2-3.8-5-8.7-5-13.7c0-6.5,2.6-12.3,8-17.4c5.2-5,11.6-7.6,19.4-7.6v-7c0-0.9,0-1.8,0-2.6
				c-13.2,0.1-24.3,4.3-32.9,12.7c-8.7,8.5-13.1,18.6-13.1,30.4c-0.1,6.4,1.4,12.8,4.4,18.5c3.2,5.9,7.7,11.2,13.1,15.4
				c5.7,4.6,15.2,10.8,28.5,18.5l0.4,0.3c1.4,0.8,2.8,1.6,4.1,2.4c9,5.3,15.2,9.1,18.7,11.5c0.8,0.6,1.5,1.1,2.1,1.5
				c0.8,0.7,1.7,1.4,2.5,2c3.1,2.6,5.6,5.9,7.6,9.4c1,2,1.9,4,2.4,6.1c1.6,0.1,3.6,0.1,5.9,0.1h9.7c2.2,0,4.2-0.1,6-0.2
				c0.1-1,0.1-2.1,0.1-3.1C207,165.4,205.5,159.1,202.6,153.2L202.6,153.2z M152.1,46.6c0,0.8,0,1.6,0,2.5v7.2
				c6,0.6,11.8,2.5,17,5.5c0.6,0.3,1.2,0.7,1.8,1V51.1C164.9,48.6,158.6,47.1,152.1,46.6L152.1,46.6z M192.2,46.4
				c-0.8,3.8-1.8,6.3-3.1,7.6c-1.4,1.3-3.1,2-5,1.9c-1.7,0-4.6-0.9-8.7-2.7v13c3.7,3.1,6.9,6.8,9.2,11c3.6,6.4,6.1,15.1,7.6,26h4.3
				V46.4H192.2z"/>
			<path class="st0" d="M133.1,18.5v4.8h5c5,0,8.8,1.9,11.4,5.6c1.4,2,2.2,6.4,2.5,13.2c0.1,1.4,0.1,3,0.2,4.6c0,0.8,0,1.6,0,2.5
				v60.2c2.9,1.8,6.2,3.6,9.8,5.6c3.2,1.8,6.2,3.5,8.9,5V51.1c0-1.7,0-3.3,0.1-4.8c0.2-7,0.7-11.6,1.5-13.7c1.1-2.8,3.1-5.2,5.8-6.7
				c2.8-1.8,7.7-2.6,14.8-2.5v-4.7L133.1,18.5z M243.7,143.1c-3.4,10.7-6.8,18.5-10.2,23.4c-3.4,5-7.1,8.4-11.2,10.4
				c-2.5,1.2-6.3,2-11.3,2.5c-1.4,0.2-3,0.3-4.7,0.3c-1.6,0.1-3.5,0.1-5.4,0.1h-9.7c-1.9,0-3.6,0-5.1-0.1c-1.8-0.1-3.2-0.1-4.6-0.3
				c-2.8-0.2-4.7-0.5-5.5-1c-1.6-0.8-2.9-2.2-3.6-3.9c-0.9-2.4-1.4-6.7-1.5-12.9l-0.7-0.6c-1.7-1.4-6.3-4.4-18.1-11.4V160
				c0,9.8-0.7,16.1-2,18.8c-2.4,4.8-6.4,7.1-12,7.1h-5v4.7h102.5l11.4-46.7L243.7,143.1z M159.8,119c-2.7-1.4-5.3-2.9-7.6-4.3v30
				c9,5.3,15.2,9.1,18.7,11.5v-30.9C167.5,123.3,163.9,121.2,159.8,119z"/>
			<path class="st0" d="M98.9,178c0,0,0.8-22.4,12.5-39.8c0,0-4.2,28.8,2.2,47.3c0,0,1.5,3.7,3.4,8.3c0.4,1,0.8,2,1.4,3.1
				c2,4.7,4.3,9.5,6,11.9C128,214.2,98.9,178,98.9,178z"/>
			<circle class="st0" cx="87.2" cy="163.9" r="7.4"/>
		</g>
	</g>
	<g>
		<path class="st1" d="M7,281.3l3.4-3.9c3.2,3.3,7.7,5.5,12.4,5.5c5.9,0,9.4-3,9.4-7.2c0-4.6-3.2-6.1-7.5-7.9l-6.4-2.9
			c-4.1-1.8-9.1-4.9-9.1-11.6c0-6.9,6-12,14.1-12c5.3,0,10.1,2.3,13.2,5.5l-3,3.7c-2.8-2.6-6.1-4.3-10.2-4.3c-5.1,0-8.4,2.5-8.4,6.6
			c0,4.4,3.9,6,7.5,7.5L29,263c5.2,2.2,9.2,5.3,9.2,12c0,7.1-5.9,12.8-15.3,12.8C16.5,287.9,11.1,285.4,7,281.3z"/>
		<path class="st1" d="M45.7,276.8v-18.4h-4.9v-4.3l5.2-0.3l0.7-9.3h4.7v9.3h9v4.6h-9V277c0,4,1.3,6.4,5.2,6.4
			c1.1,0,2.8-0.5,3.8-0.9l1,4.3c-1.8,0.7-4.1,1.3-6.2,1.3C48.1,287.9,45.7,283.4,45.7,276.8z"/>
		<path class="st1" d="M64.3,278.5c0-7.2,6.2-10.9,20.5-12.4c0-4.3-1.4-8.4-6.9-8.4c-3.8,0-7.4,1.8-9.9,3.6l-2.2-3.9
			c3.1-2,7.7-4.4,13.1-4.4c8.2,0,11.5,5.4,11.5,13.7V287h-4.6l-0.5-4h-0.2c-3.2,2.6-6.9,4.8-11,4.8
			C68.6,287.9,64.3,284.4,64.3,278.5z M84.8,279v-9.2c-11.2,1.4-14.9,4-14.9,8.3c0,3.8,2.5,5.3,5.9,5.3
			C78.9,283.4,81.6,281.8,84.8,279z"/>
		<path class="st1" d="M98.3,293.5c0-2.9,1.8-5.5,4.8-7.5v-0.2c-1.7-1-3-2.9-3-5.4c0-2.8,2-4.9,3.7-6.2V274c-2.2-1.7-4.3-4.9-4.3-9
			c0-7.2,5.7-11.8,12.5-11.8c1.8,0,3.4,0.3,4.7,0.8h11.6v4.4h-6.8c1.6,1.5,2.8,4,2.8,6.9c0,7.1-5.4,11.5-12.2,11.5
			c-1.6,0-3.4-0.3-4.9-1.1c-1.1,1-2.1,2.1-2.1,3.9c0,2.1,1.4,3.6,5.9,3.6h6.4c7.7,0,11.6,2.4,11.6,7.9c0,6.2-6.6,11.5-16.8,11.5
			C104,302.4,98.3,299.3,98.3,293.5z M123.4,291.8c0-3.1-2.3-4.1-6.7-4.1H111c-1.3,0-2.9-0.1-4.4-0.5c-2.4,1.7-3.4,3.7-3.4,5.6
			c0,3.6,3.6,5.9,9.7,5.9C119.3,298.6,123.4,295.2,123.4,291.8z M119.2,264.9c0-4.8-3.1-7.8-7-7.8s-7,2.9-7,7.8c0,4.8,3.2,7.9,7,7.9
			C115.9,272.8,119.2,269.7,119.2,264.9z"/>
		<path class="st1" d="M131.9,270.5c0-10.8,7.2-17.5,14.9-17.5c8.5,0,13.2,6.1,13.2,15.6c0,1.1-0.1,2.4-0.2,3.2h-22.4
			c0.5,7,4.7,11.6,11,11.6c3.2,0,5.9-1,8.3-2.6l2.1,3.7c-2.9,2-6.4,3.4-11,3.4C139,287.9,131.9,281.4,131.9,270.5z M155.3,267.8
			c0-6.7-3-10.2-8.2-10.2c-4.7,0-8.9,3.8-9.5,10.2H155.3z"/>
		<path class="st1" d="M182.6,242.2h5.7v40h19.5v4.8h-25.3V242.2z"/>
		<path class="st1" d="M214.3,243.4c0-2.2,1.7-3.7,3.9-3.7c2.2,0,3.9,1.4,3.9,3.7c0,2.1-1.7,3.7-3.9,3.7
			C216,247.1,214.3,245.5,214.3,243.4z M215.3,253.9h5.6v33.2h-5.6V253.9z"/>
		<path class="st1" d="M232.2,253.9h4.6l0.5,4.8h0.2c3.2-3.1,6.6-5.6,11.2-5.6c7,0,10.1,4.5,10.1,13v21h-5.6v-20.4
			c0-6.2-1.8-8.9-6.3-8.9c-3.4,0-5.7,1.7-9.1,5.1v24h-5.6v-33.1H232.2z"/>
		<path class="st1" d="M269.6,238.3h5.5v33h0.2l14.1-17.5h6.2l-11.2,13.3l12.6,19.9H291l-9.7-16l-6.2,7.2v8.7h-5.5V238.3z"/>
	</g>
</g>
</svg>
